<svg width="60" height="36" viewBox="0 0 60 36" fill="none" xmlns="http://www.w3.org/2000/svg">
<path d="M37.1249 17.82C37.1249 21.9207 33.8006 25.245 29.6999 25.245C25.5992 25.245 22.2749 21.9207 22.2749 17.82C22.2749 13.7192 25.5992 10.395 29.6999 10.395C31.5437 10.395 33.2303 11.067 34.5287 12.1794C34.2005 11.989 33.8191 11.88 33.4124 11.88C32.1822 11.88 31.1849 12.8772 31.1849 14.1075C31.1849 15.3377 32.1822 16.335 33.4124 16.335C34.6426 16.335 35.6399 15.3377 35.6399 14.1075C35.6399 13.7006 35.5309 13.3194 35.3405 12.9912C36.4529 14.2894 37.1249 15.9762 37.1249 17.82Z" fill="#ABA8A8"/>
<path fill-rule="evenodd" clip-rule="evenodd" d="M59.4 17.82C59.4 17.82 43.065 0 29.7781 0C16.4914 0 0 17.82 0 17.82C0 17.82 16.4914 35.64 29.7781 35.64C43.065 35.64 59.4 17.82 59.4 17.82ZM4.83295 17.1859C4.59976 17.4081 4.37996 17.62 4.17435 17.8199C4.37996 18.0199 4.59976 18.2318 4.83295 18.4539C6.53413 20.0745 8.93079 22.2294 11.7189 24.377C13.3635 25.6437 15.1247 26.8929 16.9427 28.023C14.7039 25.2273 13.365 21.68 13.365 17.82C13.365 13.9599 14.7039 10.4125 16.9427 7.61686C15.1247 8.74709 13.3635 9.99613 11.7189 11.2628C8.93079 13.4104 6.53413 15.5653 4.83295 17.1859ZM47.7515 24.383C46.0531 25.7002 44.2285 26.998 42.3442 28.1627C44.6508 25.346 46.035 21.7446 46.035 17.82C46.035 13.8953 44.6508 10.2939 42.3442 7.47712C44.2285 8.64181 46.0531 9.9397 47.7515 11.2569C50.5196 13.4035 52.8961 15.5575 54.5825 17.1773C54.817 17.4027 55.038 17.6174 55.2442 17.82C55.038 18.0224 54.817 18.2371 54.5825 18.4626C52.8961 20.0824 50.5196 22.2364 47.7515 24.383ZM29.7 31.185C37.0813 31.185 43.065 25.2012 43.065 17.82C43.065 10.4387 37.0813 4.455 29.7 4.455C22.3187 4.455 16.335 10.4387 16.335 17.82C16.335 25.2012 22.3187 31.185 29.7 31.185Z" fill="#ABA8A8"/>
</svg>
